<?xml version="1.0" encoding="iso-8859-1"?>
<!-- Generator: Adobe Illustrator 19.0.0, SVG Export Plug-In . SVG Version: 6.00 Build 0)  -->
<svg version="1.1" id="Capa_1" xmlns="http://www.w3.org/2000/svg" xmlns:xlink="http://www.w3.org/1999/xlink" x="0px" y="0px"
	 viewBox="0 0 472 472" style="enable-background:new 0 0 472 472;" xml:space="preserve">
<path style="fill:#E76E54;" d="M260.72,437.92C151.459,453.826,49.991,378.146,34.085,268.885C32.693,259.32,31.996,249.666,32,240
	c0-2.64,0.08-5.36,0.16-8c4.395-110.369,97.43-196.279,207.799-191.884c64.05,2.55,122.997,35.647,158.521,89.004
	C420.29,161.991,431.947,200.552,432,240c0.112,99.375-72.845,183.719-171.2,197.92"/>
<circle style="fill:none;stroke:#000000;stroke-width:2;stroke-linejoin:round;" cx="376" cy="256" r="24"/>
<path style="fill:#FFCB5A;" d="M277.04,238c14.911-0.108,27.087,11.893,27.194,26.804c0.108,14.911-11.893,27.087-26.804,27.194
	c-3.416,0.025-6.806-0.599-9.99-1.839c-2.315,9.65-12.015,15.595-21.664,13.28c-9.65-2.315-15.595-12.015-13.28-21.664
	c1.941-8.091,9.184-13.791,17.504-13.776h0.32c-0.186-0.977-0.293-1.966-0.32-2.96c-0.018-14.916,12.06-27.022,26.976-27.04
	C276.997,238,277.019,238,277.04,238z"/>
<g>
	<circle style="fill:#E76E54;" cx="344" cy="352" r="40"/>
	<path style="fill:#E76E54;" d="M426,191.52l-2,0.48c-64,24-128,8-184,0s-112,16-136,8s-24-48,32-57.68c74.8-12.88,120,0,184,0
		c53.28,0,73.28-9.92,78.48-13.2C411.224,148.155,420.538,169.274,426,191.52L426,191.52z"/>
</g>
<path style="fill:#D95354;" d="M432,240c0.052,73.422-40.153,140.963-104.72,175.92c-35.225-6.664-66.504-26.704-87.28-55.92
	c-32-48-80-104-128-120c-46-15.36-77.36-8.64-79.84-8c1.992-52.053,24.308-101.252,62.16-137.04c31.2-0.56,37.68,10.96,77.2,6.32
	c45.36-5.36,43.52-21.2,88.88-26.56c45.04-5.36,47.2,10.32,91.6,5.28c18.156,13.631,33.872,30.239,46.48,49.12
	c-5.2,3.28-25.2,13.2-78.48,13.2c-64,0-109.2-12.88-184,0C80,152,80,192,104,200s80-16,136-8s120,24,184,0l2-0.48
	C429.996,207.37,432.011,223.654,432,240z M344,392c22.091,0,40-17.909,40-40s-17.909-40-40-40s-40,17.909-40,40
	S321.909,392,344,392z M304,265.04c0-14.912-12.088-27-27-27s-27,12.088-27,27c0.027,0.994,0.134,1.983,0.32,2.96H250
	c-9.941-0.04-18.032,7.986-18.073,17.927c-0.04,9.941,7.986,18.032,17.927,18.073c8.366,0.034,15.652-5.701,17.585-13.84
	c13.785,5.391,29.329-1.414,34.72-15.199C303.396,271.8,304.02,268.434,304,265.04z"/>
<path style="fill:#E76E54;" d="M240,360c20.776,29.216,52.055,49.256,87.28,55.92c-20.697,11.179-43.2,18.626-66.48,22h-0.08
	c-68.56-11.84-63.44-64.08-109.2-94.56c-30.801-19.198-67.078-27.69-103.2-24.16C37.522,294.193,31.968,267.238,32,240
	c0-2.64,0.08-5.36,0.16-8c2.48-0.64,33.84-7.36,79.84,8C160,256,208,312,240,360z"/>
<g>
	<path style="fill:#F38A68;" d="M260.72,437.92c-89.499,13.001-176.585-35.676-212.4-118.72c36.122-3.53,72.399,4.962,103.2,24.16
		C197.28,373.84,192.16,426.08,260.72,437.92z"/>
	<path style="fill:#F38A68;" d="M352,80c-44.4,5.04-46.56-10.64-91.6-5.28c-45.36,5.36-43.52,21.2-88.88,26.56
		c-39.52,4.64-46-6.88-77.2-6.32C165.07,27.798,273.953,21.476,352,80z"/>
</g>
<g>
	<path style="fill:#8A4325;" d="M344,400c-26.51,0-48-21.49-48-48s21.49-48,48-48s48,21.49,48,48
		C391.974,378.499,370.499,399.974,344,400z M344,320c-17.673,0-32,14.327-32,32s14.327,32,32,32s32-14.327,32-32
		S361.673,320,344,320z"/>
	<path style="fill:#8A4325;" d="M250,312c-14.359,0.005-26.004-11.631-26.01-25.99c-0.004-11.365,7.374-21.416,18.218-24.818
		c2.089-19.217,19.361-33.102,38.577-31.013s33.102,19.361,31.013,38.577c-2.089,19.217-19.361,33.102-38.577,31.013
		c-0.368-0.04-0.735-0.086-1.101-0.137C267.419,307.341,259.03,312.032,250,312L250,312z M277.04,246
		c-10.512,0.009-19.031,8.528-19.04,19.04c0.028,0.538,0.097,1.073,0.208,1.6c0.751,4.354-2.17,8.492-6.524,9.244
		c-0.451,0.078-0.907,0.117-1.364,0.116c-5.523-0.088-10.072,4.317-10.16,9.84s4.317,10.072,9.84,10.16
		c4.596-0.025,8.579-3.186,9.648-7.656c1.002-4.303,5.303-6.979,9.606-5.977c0.349,0.081,0.691,0.186,1.026,0.313
		c9.608,3.854,20.521-0.811,24.374-10.419c0.92-2.295,1.378-4.749,1.346-7.221C296.013,254.55,287.53,246.031,277.04,246L277.04,246
		z"/>
</g>
<path style="fill:#003170;" d="M448,72h-16c0-13.255-10.745-24-24-24V32c13.255,0,24-10.745,24-24h16c0,13.255,10.745,24,24,24v16
	C458.745,48,448,58.745,448,72z M432,40c3.027,2.28,5.72,4.973,8,8c2.28-3.027,4.973-5.72,8-8c-3.027-2.28-5.72-4.973-8-8
	C437.72,35.027,435.027,37.72,432,40z"/>
<g>
	<path style="fill:#FFCB5A;" d="M32,432h16v16H32V432z"/>
	<path style="fill:#FFCB5A;" d="M0,432h16v16H0V432z"/>
	<path style="fill:#FFCB5A;" d="M16,416h16v16H16V416z"/>
	<path style="fill:#FFCB5A;" d="M16,448h16v16H16V448z"/>
</g>
<path style="fill:#D95354;" d="M392,432h16v16h-16V432z"/>
<g>
</g>
<g>
</g>
<g>
</g>
<g>
</g>
<g>
</g>
<g>
</g>
<g>
</g>
<g>
</g>
<g>
</g>
<g>
</g>
<g>
</g>
<g>
</g>
<g>
</g>
<g>
</g>
<g>
</g>
</svg>
