<svg id="Layer_1" enable-background="new 0 0 479.88 479.88" height="512" viewBox="0 0 479.88 479.88" width="512" xmlns="http://www.w3.org/2000/svg"><g><g><path d="m367.94 79.97v327.97c0 17.67-14.33 32-32 32h-111.99v23.85c0 13.23-15.1 20.79-25.69 12.85-57.082-42.821-39.345-29.518-76.73-57.55-12.761-9.561-12.808-28.759 0-38.36 18.085-13.564 68.034-51.028 76.73-57.55 10.59-7.94 25.69-.39 25.69 12.85v23.91h63.99v-280z" fill="#80aaff"/></g><g><path d="m367.94 79.97v87.49c-31.673-1.069-52.895 23.444-80 34.63v-122.15z" fill="#6994ff"/></g><g><path d="m367.94 366.22v41.72c0 17.67-14.33 32-32 32h-111.99v23.85c0 13.23-15.1 20.79-25.69 12.85l-47.03-35.28c15.61-11.62 27.37-29.63 46.19-34.17 12.65-3.04 25.79.8 38.48 3.69 24.16 5.52 49.83 7.58 73.49.18 23.96-7.49 43.86-24.23 58.55-44.84z" fill="#6994ff"/></g><g><path d="m358.35 99.15c-18.085 13.564-68.034 51.028-76.73 57.55-10.59 7.94-25.69.39-25.69-12.85v-23.91h-63.99v207.98c-25.56 19.18-9.604 7.211-70.41 52.81-6.39 4.79-9.59 11.99-9.59 19.18v-327.97c0-17.67 14.33-32 32-32h111.99v-23.85c0-13.23 15.1-20.79 25.69-12.85 47.534 35.651 28.766 21.575 76.73 57.55 12.762 9.561 12.808 28.759 0 38.36z" fill="#ff6d7a"/></g><g><path d="m358.35 99.15c-18.085 13.564-68.034 51.028-76.73 57.55-10.59 7.94-25.69.39-25.69-12.85v-23.91h-63.99v207.98l-19.19 14.4c-2.45-28.17-10.77-56.06-15.79-84.09-7.556-42.14-9.445-96.232 5.26-136.5 2-5.48 4.439-11.01 8.71-14.98 15.95-14.86 44.61.62 62.74-11.47 5.75-3.83 9.98-10.24 16.63-12.1 8.57-2.4 16.91 3.65 25.34 6.479 19.19 6.44 42.5-6.96 46.59-26.79 2.11-10.24-.32-20.65-2.45-31.01l38.57 28.93c12.762 9.562 12.808 28.76 0 38.361z" fill="#fe4f60"/></g><g><path d="m166.319 384.996c-2.774 3.893-3.243 9.735-.004 13.25 2.107 2.287 5.438 3.223 8.521 2.821 8.854-1.154 10.708-9.56 16.862-10.7 3.811-.706 8.213 1.567 9.232-5.564.278-1.948.385-3.963-.149-5.857s-1.796-3.662-3.617-4.406c-4.64-1.897-24.609 1.707-30.845 10.456z" fill="#fff"/></g><g><path d="m142.214 101.634c1.211 2.807 3.288 5.514 6.253 6.258 2.063.518 4.257.003 6.212-.835 3.748-1.607 6.965-4.428 9.046-7.935 1.481-2.495 2.434-5.365 4.474-7.429 5.403-5.467 14.936-5.817 11.064-16.082-2.298-6.092-7.595-8.999-13.947-8.309-15.61 1.694-29.783 18.851-23.102 34.332z" fill="#fff"/></g></g></svg>